<svg id="Capa_1" enable-background="new 0 0 497 497" height="512" viewBox="0 0 497 497" width="512" xmlns="http://www.w3.org/2000/svg"><path d="m211.333 165v129.511c0 12.426 10.074 22.5 22.5 22.5 12.427 0 22.5-10.074 22.5-22.5l30-174.511h-30c-24.75 0-45 20.25-45 45z" fill="#f9a3bf"/><path d="m481.333 165v130.261c0 12.426-10.074 21.75-22.5 21.75-12.427 0-22.5-9.324-22.5-21.75l-30-175.261h30c24.75 0 45 20.25 45 45z" fill="#be437c"/><path d="m406.333 120h-30l22.593 376.988c.213 0 .424.009.638.005 20.373-.39 36.769-17.027 36.769-37.493v-309.5c0-16.569-13.431-30-30-30z" fill="#fa4087"/><path d="m406.333 459.5v-309.5c0-16.569-13.431-30-30-30h-90c-16.569 0-30 13.431-30 30v308.759c0 21.027 17.208 38.636 38.231 38.234 20.373-.39 36.769-17.027 36.769-37.493v-157.489h30v156.749c0 20.813 16.862 38.266 37.593 38.229 4.099-.25 7.407-16.934 7.407-37.489z" fill="#fa71a3"/><path d="m346.005 0v90c24.853 0 45-20.147 45-45s-20.148-45-45-45z" fill="#fa4087"/><path d="m361.005 45c0-24.853-6.716-45-15-45-24.853 0-45 20.147-45 45s20.147 45 45 45c8.284 0 15-20.147 15-45z" fill="#fa71a3"/><path d="m151.333 180h-30l30 152.511c0 8.28 6.71 14.5 15 14.5 8.28 0 15-6.22 15-14.5v-122.511c0-16.5-13.5-30-30-30z" fill="#3a9dd9"/><path d="m45.667 180h30l-30 152.011c0 8.28-6.72 15-15 15s-15-6.72-15-15v-122.011c0-16.5 13.5-30 30-30z" fill="#78d0ff"/><path d="m151.333 210c0-16.5-13.5-30-30-30h-45.666c-16.5 0-30 13.5-30 30v268.084c0 10.447 8.469 18.916 18.917 18.916 10.447 0 18.917-8.469 18.917-18.916v-146.073h30v146.073c0 10.447 8.469 18.916 18.916 18.916s18.916-8.469 18.916-18.916z" fill="#35b9ff"/><path d="m98.171 60v90c24.853 0 45-20.147 45-45s-20.147-45-45-45z" fill="#3a9dd9"/><path d="m113.171 105c0-24.853-6.716-45-15-45-24.853 0-45 20.147-45 45s20.147 45 45 45c8.284 0 15-20.147 15-45z" fill="#35b9ff"/></svg>